<?xml version="1.0" encoding="utf-8"?>
<!-- Generator: Adobe Illustrator 22.0.0, SVG Export Plug-In . SVG Version: 6.00 Build 0)  -->
<svg version="1.1" id="Capa_1" xmlns="http://www.w3.org/2000/svg" xmlns:xlink="http://www.w3.org/1999/xlink" x="0px" y="0px"
	 viewBox="0 0 512 512" style="enable-background:new 0 0 512 512;" xml:space="preserve">
<style type="text/css">
	.st0{fill:#020202;}
</style>
<g>
	<g>
		<path class="st0" d="M9.5,310c1,0.3,2.2,0.4,3.2,0.4c4.5,0,8.8-2.4,11.2-6.5c49-86.4,100.1-92.2,158.5-92.6v51.7
			c0,4.8,2.7,9.2,7,11.4c4.3,2.2,9.4,1.8,13.2-0.9L362,159c3.3-2.4,5.3-6.3,5.3-10.4c0-4.2-2-8-5.3-10.4L202.6,24.2
			c-3.9-2.8-9-3.1-13.2-0.9s-6.9,6.6-6.9,11.4v52.6c-73.2,6.3-125.3,34.8-154.6,85C2.9,214.8,0,264.2,0,297.7
			C0,303.5,4,308.6,9.5,310z M195.8,111.9c6.8-0.3,12.1-5.9,12.1-12.7V59.6l124.7,89.2l-124.7,89.5v-39.6c0-3.3-1.4-6.7-3.8-9.1
			c-2.4-2.4-5.6-3.8-9.1-3.8l0,0c-56.1,0-113.8,0-166.8,65.8C37.5,185.7,72.7,118.1,195.8,111.9z"/>
		<path class="st0" d="M421.3,161.6h65.1v302.9H125.1V281c0-7.1-5.7-12.8-12.8-12.8S99.5,274,99.5,281v196.3
			c0,7.1,5.7,12.8,12.8,12.8h386.8c7.1,0,12.8-5.7,12.8-12.8V148.7c0-7.1-5.7-12.8-12.8-12.8h-77.9c-7.1,0-12.8,5.7-12.8,12.8
			C408.5,155.8,414.3,161.6,421.3,161.6z"/>
	</g>
</g>
</svg>
